<?xml version="1.0" encoding="utf-8"?>
<!-- Generator: Adobe Illustrator 27.0.1, SVG Export Plug-In . SVG Version: 6.00 Build 0)  -->
<svg version="1.1" id="Layer_1" xmlns="http://www.w3.org/2000/svg" xmlns:xlink="http://www.w3.org/1999/xlink" x="0px" y="0px"
	 viewBox="0 0 216 108" style="enable-background:new 0 0 216 108;" xml:space="preserve">
<style type="text/css">
	.st0{fill:#043673;}
</style>
<g>
	<path class="st0" d="M31,76.9c-2.9-3.7-7.1-5.9-11.5-6c-8.6,0.2-15.5,8-15.6,17.6c0,4.5,1.7,8.7,4.6,11.8c2.9,3.2,6.9,5.1,11,5.3
		c4.4-0.1,8.5-2.2,11.5-5.8v3.3c-7.3,7.2-18.4,6.4-24.8-1.8S0.5,80.6,7.8,73.5c3.3-3.2,7.5-5,11.9-4.9c4.2,0,8.2,1.8,11.3,5V76.9z"
		/>
	<path class="st0" d="M57.6,68.6c-9.7,0.1-17.5,9-17.4,19.9c0.1,10.9,8,19.6,17.7,19.4c9.6-0.1,17.4-8.9,17.4-19.7
		C75.2,77.4,67.3,68.6,57.6,68.6 M57.6,70.9c8.6,0,15.5,7.8,15.5,17.4c0,9.6-7,17.3-15.6,17.3c-8.5,0-15.5-7.8-15.5-17.4
		C42.1,78.7,49,71,57.6,70.9"/>
	<polygon class="st0" points="85.1,69.1 85.1,107.4 96,107.4 96,105.1 87.3,105.1 87.3,69.1 	"/>
	<polygon class="st0" points="106.1,69.1 106.1,107.4 117,107.4 117,105.1 108.3,105.1 108.3,69.1 	"/>
	<polygon class="st0" points="126.6,69.1 126.6,107.4 142.9,107.4 142.9,105.1 128.8,105.1 128.8,87.6 142.5,87.6 142.5,85.3 
		128.8,85.3 128.8,71.4 142.9,71.4 142.9,69.1 	"/>
	<path class="st0" d="M186.2,88.9c0.1,4.8-0.5,9-3.6,12.7c-6.7,7.7-17.7,7.9-24.7,0.4c-6.9-7.5-7.1-19.9-0.4-27.6
		c6.7-7.7,17.7-7.9,24.7-0.4c1,1,1.8,2.2,2.5,3.4l-1.8,1.6c-2.8-5.1-7.8-8.2-13.2-8.2c-8.5,0.2-15.3,7.9-15.5,17.4
		c0.1,9.6,7,17.3,15.5,17.4c3.7-0.1,7.2-1.6,10.1-4.2c2.7-2.5,4.2-6.2,4.2-10.2h-12.2v-2.3H186.2z"/>
	<polygon class="st0" points="197.1,69.1 197.1,107.4 213.4,107.4 213.4,105.1 199.3,105.1 199.3,87.6 213.1,87.6 213.1,85.3 
		199.3,85.3 199.3,71.4 213.4,71.4 213.4,69.1 	"/>
	<path class="st0" d="M100.8,40.8l13.4-8.7c0,0-1.7,1.8-1.5,7c0,0-0.3,10.3,0,11.5c0,0,0.1,6.3,7.9,5.2c2.9-0.6,4.9-3.5,4.8-6.8
		c0,0,0-17.8-0.1-18.8c0,0,0.3-4-2.6-3.2c0,0,13.9-9.1,14.7-9.7c0,0-1.3,1-1.5,5v32.8c0,0-0.1,5,2.7,5.5c0,0-12.4,0.1-13.3,0l0-4.8
		c0,0-3.7,5.8-13.2,5.8c0,0-8.2,0.3-8.9-6.7c0,0-0.4-7.8-0.4-11.6C102.9,43.4,103.1,39.9,100.8,40.8"/>
	<path class="st0" d="M176,8.3L188.8,0c0,0,0.2,25.5,0.2,26.6c0,0,2.5-6.8,12.3-8.5c0,0,11.2-2,11.8,8.2c0.3,4.1,0.2,24.2,0.2,29.6
		c0,0,0.1,4,2.6,4.8c0,0-15.3,0-15.9,0c1.6-1,2.5-2.9,2.5-4.9c0,0,0.3-23-0.1-24.8c0,0-0.1-6.4-5.9-6.4c-3.8,0.5-6.8,4-7.2,8.3
		c-0.4,4-0.2,20-0.2,22.3c-0.1,2.2,0.9,4.3,2.6,5.5c-8.3,0-8.1,0-15.8,0c1.7-1.1,2.8-3.2,2.7-5.4c0,0-0.2-40-0.2-41.9
		C178.4,13.4,178.7,7.1,176,8.3"/>
	<path class="st0" d="M23.4,57.6c0,0-8.7,1.6-9-3.8c-0.3-5.3-0.1-27.9-0.1-27.9l-0.2-18c-0.1-3.9,4.6-3.8,4.6-3.8
		c9.7,0,8.8,11,8.8,11c0,6-8.2,13.4-8.2,13.4l-0.1,0l0.1,0c0.8,0.2,11.2,2.9,12,17.6C31.4,46.1,32.5,56.3,23.4,57.6 M42.6,43.6
		c-1.6-14-16.3-16-16.3-16c10.4-6.8,11.3-13,11.3-14.5C38,7.4,34.4,2.4,29.3,1.6C27,0.8,0,1.3,0,1.3C1.6,2.2,2.5,4,2.6,6
		c0.2,1.3,0.5,49.1,0.5,49.1c-0.5,4.7-3,5.6-3,5.6c0.7,0,29.2-0.2,29.2-0.2C44.7,59.8,42.6,43.6,42.6,43.6"/>
	<path class="st0" d="M80.6,27.9l13.7-8.5l0.2,9c0,0,1.5-8.5,9.1-10c0,0,9.8-2.2,9.5,8.5c0,0.3-11.7,7.4-11.7,7.4
		c0.6-0.8,1-1.7,1.3-2.6c0.4-1,0.4-2.1,0.2-3.1c-1.1-3.9-4.9-1.8-6.3-0.2c0,0-2.1,1.5-2.1,7.6c0,0,0.1,18.9,0,19.9c0,0,0,4.2,2.4,5
		c0,0-16.3,0.1-16.4-0.1c1.5-1,2.4-2.8,2.4-4.7c0.2-3.5,0.3-22.9,0.3-23.8C83.4,32.2,83.6,27.1,80.6,27.9"/>
	<path class="st0" d="M48.8,35.6l0.3-12.4c0,0,6.6-5.5,14.1-5.6c0,0,12.8-0.6,14.4,13.2c0,0-0.4,20-0.5,23.1c0,0-0.3,5.7,3.3,6.8H66
		c0,0,0.9-22.1,0.5-24.1c0,0-10,6.3-10.9,11.8c-0.3,1.6-0.8,7.5,4.3,7.5c1.2-0.1,2.3-0.7,3.2-1.7c0,0,0,5.1,0,5.7
		c0,0-2.4,1.9-8.9,1.2c0,0-10.2-1-10.2-11.8c0-1.5,0.7-7.1,8.4-10.8c7.7-3.7,9.9-4,12.5-6.7c2.5-2.6,2.9-9-2.7-9.5
		C58.8,22,53.6,25.6,48.8,35.6"/>
	<path class="st0" d="M167.1,35.4l7.2-9.3c0,0-5.2-9.2-18.2-7.7C141.3,20,137.9,33.7,138,38.6c0.1,3.3-0.6,19.8,16.4,23.8
		c0,0,9,2.4,19.3-4.6l2.4-11.3c0,0-6.4,11-14.1,11.2c0,0-10.6,1.6-12.8-16.8c-2.1-16.8,7.2-18.8,9.5-18.8
		C160.1,22.1,167.6,22.8,167.1,35.4"/>
</g>
</svg>
