<?xml version="1.0" encoding="UTF-8"?>
<svg id="Layer_1" data-name="Layer 1" xmlns="http://www.w3.org/2000/svg" xmlns:xlink="http://www.w3.org/1999/xlink" viewBox="0 0 388.86 284.11">
  <defs>
    <style>
      .cls-1 {
        fill: url(#linear-gradient);
      }

      .cls-2 {
        fill: url(#linear-gradient-8);
      }

      .cls-3 {
        fill: url(#linear-gradient-9);
      }

      .cls-4 {
        fill: url(#linear-gradient-3);
      }

      .cls-5 {
        fill: url(#linear-gradient-4);
      }

      .cls-6 {
        fill: url(#linear-gradient-2);
      }

      .cls-7 {
        fill: url(#linear-gradient-6);
      }

      .cls-8 {
        fill: url(#linear-gradient-7);
      }

      .cls-9 {
        fill: url(#linear-gradient-5);
      }

      .cls-10 {
        fill: url(#linear-gradient-13);
      }

      .cls-11 {
        fill: url(#linear-gradient-12);
      }

      .cls-12 {
        fill: url(#linear-gradient-10);
      }

      .cls-13 {
        fill: url(#linear-gradient-11);
      }
    </style>
    <linearGradient id="linear-gradient" x1="329.48" y1="-4.02" x2="331.02" y2="205.65" gradientUnits="userSpaceOnUse">
      <stop offset=".29" stop-color="#b45ffb"/>
      <stop offset=".95" stop-color="#ff69b4"/>
    </linearGradient>
    <linearGradient id="linear-gradient-2" x1="57.25" y1="-2.02" x2="58.79" y2="207.65" xlink:href="#linear-gradient"/>
    <linearGradient id="linear-gradient-3" x1="192.42" y1="-3.01" x2="193.96" y2="206.66" xlink:href="#linear-gradient"/>
    <linearGradient id="linear-gradient-4" x1="210.27" y1="-3.14" x2="211.81" y2="206.52" xlink:href="#linear-gradient"/>
    <linearGradient id="linear-gradient-5" x1="245.57" y1="-3.4" x2="247.11" y2="206.26" gradientUnits="userSpaceOnUse">
      <stop offset=".29" stop-color="#483bc9"/>
      <stop offset=".95" stop-color="#ff69b4" stop-opacity="0"/>
    </linearGradient>
    <linearGradient id="linear-gradient-6" x1="391.25" y1="149" x2="350.42" y2="97.7" xlink:href="#linear-gradient-5"/>
    <linearGradient id="linear-gradient-7" x1="20.63" y1="116" x2="47.32" y2="179.86" xlink:href="#linear-gradient-5"/>
    <linearGradient id="linear-gradient-8" x1="201.26" y1="95.27" x2="259.1" y2="87.68" gradientUnits="userSpaceOnUse">
      <stop offset=".21" stop-color="#c862e8" stop-opacity="0"/>
      <stop offset=".8" stop-color="#822ec3"/>
    </linearGradient>
    <linearGradient id="linear-gradient-9" x1="154.74" y1="194.11" x2="108.15" y2="127.89" gradientUnits="userSpaceOnUse">
      <stop offset=".21" stop-color="#e666cb" stop-opacity="0"/>
      <stop offset=".8" stop-color="#763bc9"/>
    </linearGradient>
    <linearGradient id="linear-gradient-10" x1="306.92" y1="123.48" x2="247.51" y2="124.27" xlink:href="#linear-gradient-9"/>
    <linearGradient id="linear-gradient-11" x1="195.37" y1="-3.03" x2="196.92" y2="206.63" xlink:href="#linear-gradient"/>
    <linearGradient id="linear-gradient-12" x1="216.49" y1="-3.19" x2="218.03" y2="206.48" xlink:href="#linear-gradient"/>
    <linearGradient id="linear-gradient-13" x1="173.2" y1="-2.87" x2="174.74" y2="206.8" xlink:href="#linear-gradient"/>
  </defs>
  <path class="cls-1" d="M375.51,128.71c-8.72,0-16.49-3.5-22.22-9.2-5.71-5.73-9.2-13.5-9.2-22.22V43.62c0-12-4.9-22.99-12.77-30.84C323.47,4.9,312.48,0,300.48,0h-13.93C279.17,0,273.2,5.98,273.2,13.35s5.98,13.35,13.35,13.35h0s13.93,0,13.93,0c4.71,0,8.86,1.87,11.97,4.96,3.08,3.1,4.95,7.25,4.96,11.97v53.67c0,16.01,6.53,30.62,17.02,41.09,1.28,1.29,2.63,2.51,4.03,3.67-1.4,1.16-2.75,2.39-4.03,3.67-10.5,10.47-17.03,25.09-17.02,41.1v53.67c0,4.71-1.87,8.86-4.96,11.97-3.1,3.08-7.25,4.95-11.97,4.96h-13.93c-7.37,0-13.35,5.98-13.35,13.35s5.98,13.35,13.35,13.35h0s13.93,0,13.93,0c12,0,22.99-4.9,30.84-12.77,7.87-7.85,12.78-18.84,12.77-30.84v-53.67c0-8.72,3.5-16.49,9.2-22.22,5.73-5.71,13.5-9.2,22.22-9.2,7.37,0,13.35-5.98,13.35-13.35s-5.98-13.35-13.35-13.35Z"/>
  <path class="cls-6" d="M102.32,257.42h0s-13.93,0-13.93,0c-4.72,0-8.86-1.87-11.97-4.96-3.08-3.1-4.95-7.25-4.96-11.97v-53.67c0-16.01-6.53-30.62-17.02-41.1-1.28-1.29-2.63-2.51-4.03-3.67,1.4-1.16,2.75-2.39,4.03-3.67,10.5-10.47,17.03-25.09,17.02-41.09V43.62c0-4.72,1.87-8.86,4.96-11.97,3.1-3.08,7.25-4.95,11.97-4.96h13.93c7.37,0,13.35-5.98,13.35-13.35S109.69,0,102.32,0h0S88.39,0,88.39,0c-12,0-22.99,4.9-30.84,12.77-7.87,7.85-12.78,18.84-12.77,30.84v53.67c0,8.72-3.5,16.49-9.2,22.22-5.73,5.71-13.5,9.2-22.22,9.2-7.37,0-13.35,5.98-13.35,13.35s5.98,13.35,13.35,13.35c8.72,0,16.49,3.5,22.22,9.2,5.71,5.73,9.2,13.5,9.2,22.22v53.67c0,12,4.9,22.99,12.77,30.84,7.85,7.87,18.84,12.78,30.84,12.77h13.93c7.37,0,13.35-5.98,13.35-13.35s-5.98-13.35-13.35-13.35Z"/>
  <path class="cls-4" d="M239.14,257.42h-89.43c-7.37,0-13.35,5.98-13.35,13.35s5.98,13.35,13.35,13.35h89.43c7.37,0,13.35-5.98,13.35-13.35s-5.98-13.35-13.35-13.35Z"/>
  <path class="cls-5" d="M308.15,137.06c-.47,5.72-2.07,10.74-4.16,15.39-4.23,9.23-10.54,17.11-18.58,22.67-1.56,1.07-3.2,2.05-4.89,2.87-1.82,.89-3.94-.38-3.94-2.4,0-.8,.36-1.56,.96-2.07,1.27-1.07,2.42-2.22,3.51-3.45,5.43-6.21,8.88-14.06,10.26-21.76,.69-3.83,.78-7.7,.16-10.92-.62-3.34-2.09-5.23-3.4-5.96-1.38-.73-3.43-1.11-6.27-1.11-1.45,.07-2.96,.16-4.56,.47-.78,.13-1.58,.31-2.36,.51-.38,.11-.76,.2-1.11,.31l-.51,.18-.22,.13c-.13,.02-.29,.04-.42,.07-.07,.51-.16,1.02-.22,1.53-2.14,14.5-5.94,30.92-13.24,46.25-.07,.11-.11,.24-.18,.36,0,.02-.02,.07-.04,.09-4.85,10.06-11.28,19.64-20,27.56-5.05,4.56-10.88,8.54-17.46,11.55-7.52,3.45-16,5.63-25.23,6.23l-.44,.04h-5.54l-.47-.04c-9.14-.6-17.57-2.74-25.05-6.16-7.5-3.38-13.99-8.03-19.51-13.37l-1.2-1.2c-10.37-10.54-17.2-23.47-21.91-36.51-.98-2.74-1.89-5.49-2.69-8.23-1.89-6.32-3.34-12.59-4.47-18.66-.16-.82-.22-1.65-.22-2.45,0-7.21,5.87-13.33,13.37-13.33h68.9c7.92,0,14.26,6.96,13.24,15.11-.87,6.72-6.92,11.59-13.7,11.59h-51.57c.96,3.27,2.05,6.47,3.27,9.59,3.16,8.1,7.23,15.44,12.17,21.25,2.65,3.11,5.52,5.81,8.68,8.03,.78,.58,1.56,1.11,2.38,1.6,5.49,3.31,11.81,5.49,19.91,6.1h3.36c5.12-.38,9.52-1.4,13.46-2.94,4-1.56,7.52-3.63,10.74-6.21,6.43-5.12,11.72-12.37,15.91-21,2.78-5.74,5.05-12.04,6.85-18.49,1.85-6.61,3.2-13.37,4.16-19.8,0-.04,.02-.07,.02-.11,.27-1.89,.51-3.74,.73-5.56,.22-1.8,.42-3.56,.58-5.25,0-.11,.02-.22,.02-.33,.49-5.03,.73-9.61,.87-13.48H127.35c-7.5,0-13.57-6.16-13.35-13.73,.2-7.32,6.56-12.97,13.88-12.97h133.5c3.56,0,6.79,1.4,9.19,3.67,2.38,2.27,3.94,5.43,4.14,8.97,.02,.22,.16,2.87,.16,7.3,0,1.91-.02,4.14-.09,6.63,.78,.02,1.58,.09,2.38,.16,2.87,.24,5.83,.8,8.79,1.58,1.51,.49,2.96,.85,4.49,1.53l2.27,.98c.76,.4,1.51,.82,2.25,1.25,1.49,.78,2.96,1.98,4.34,3.07,1.36,1.2,2.65,2.63,3.78,4.03,2.18,3,3.74,6.38,4.43,9.65,.73,3.29,.87,6.34,.65,9.21Z"/>
  <path class="cls-9" d="M246.59,124.8c.22-1.8,.42-3.56,.58-5.25-.4,5.32-.87,8.68-1.31,10.81,.27-1.89,.51-3.74,.73-5.56Z"/>
  <path class="cls-7" d="M375.44,128.72c-14.02,0-26.96,5.03-36.97,13.33-1.4-1.16-2.76-2.38-4.05-3.67-10.5-10.46-17.02-25.07-17.02-41.09V43.63c0-4.72-1.87-8.88-4.96-11.97-3.09-3.09-7.25-4.96-11.97-4.96h-13.93c-7.36,0-13.35-5.98-13.35-13.35S279.18,0,286.55,0h13.93c12.01,0,23,4.89,30.86,12.77,7.88,7.85,12.77,18.84,12.77,30.86v53.66c0,8.72,3.49,16.48,9.21,22.22,5.7,5.67,13.46,9.17,22.13,9.21Z"/>
  <path class="cls-8" d="M115.72,270.76c0,7.39-5.98,13.35-13.35,13.35h-13.93c-12.01,.02-23-4.89-30.86-12.77-7.88-7.85-12.77-18.84-12.77-30.83v-53.68c0-8.72-3.49-16.48-9.21-22.22-5.72-5.7-13.48-9.19-22.2-9.19,14.04,0,26.98-5.03,37.04-13.35,1.42,1.16,2.76,2.38,4.05,3.67,10.5,10.48,17.02,25.09,17.02,41.09v53.68c0,4.72,1.87,8.85,4.96,11.95,3.09,3.09,7.25,4.96,11.97,4.96h13.93c7.36,0,13.35,5.98,13.35,13.35Z"/>
  <path class="cls-2" d="M248.04,91.61c-.02,5.36-.09,10.03-.2,14.13h-45.67l-3.6-26.7h36.39c6.5,0,12.36,4.69,13.02,11.15,.05,.47,.07,.94,.07,1.42Z"/>
  <path class="cls-3" d="M169.07,191.21l-25.05,13.61c-10.37-10.54-17.2-23.47-21.91-36.51-.18-.5-.36-1.01-.53-1.51-2.39-6.87,2.54-14.37,9.8-14.46,.05,0,.11,0,.16,0h13.41c.96,3.27,2.05,6.47,3.27,9.59,3.16,8.1,7.23,15.44,12.17,21.25,2.65,3.11,5.52,5.81,8.68,8.03Z"/>
  <path class="cls-12" d="M273.23,131.79l.51-.18c.36-.11,.73-.2,1.11-.31,.78-.2,1.58-.38,2.36-.51,1.6-.31,3.11-.4,4.56-.47,2.85,0,4.89,.38,6.27,1.11,1.31,.73,2.78,2.63,3.4,5.96,.26,1.36,.37,2.85,.39,4.39h15.61c.3-1.53,.55-3.09,.68-4.72,.22-2.87,.09-5.92-.65-9.21-.69-3.27-2.25-6.65-4.43-9.65-1.13-1.4-2.42-2.83-3.78-4.03-1.38-1.09-2.85-2.29-4.34-3.07-.73-.42-1.49-.85-2.25-1.25l-2.27-.98c-1.53-.69-2.98-1.05-4.49-1.53-2.96-.78-5.92-1.33-8.79-1.58-.8-.07-1.6-.13-2.38-.16-.22,7.01-.78,16.2-2.18,26.38,.13-.02,.29-.04,.42-.07l.22-.13Z"/>
  <path class="cls-13" d="M200.42,0c-.56,3.34-1.66,6.45-2.42,9.41-.8,2.95-1.34,5.72-1.42,8.35-.1,2.63,.2,5.15,.82,7.68,.6,2.53,1.47,5.07,2.61,7.63l1.82,4.29c.6,1.57,1.21,3.17,1.69,4.88,.95,3.39,1.56,7.27,1.03,11.06-.5,3.79-1.9,7.2-3.71,10.1-1.84,2.9-4,5.43-6.57,7.62,.38-3.36,.99-6.5,1.31-9.52,.34-3.01,.41-5.8,.02-8.32-.38-2.52-1.2-4.88-2.29-7.43-.54-1.26-1.13-2.58-1.78-3.9l-.97-2.02-.24-.51-.26-.6-.52-1.21c-1.42-3.19-2.37-6.74-2.77-10.41-.39-3.67-.09-7.56,1.08-11.1,1.15-3.55,3.06-6.66,5.26-9.23,2.22-2.59,4.65-4.71,7.31-6.77Z"/>
  <path class="cls-11" d="M219.73,7.85c-.46,5.4-.94,10.05-.74,14.41,.09,2.17,.31,4.22,.7,6.18,.21,.98,.42,1.93,.7,2.86,.26,.9,.6,1.91,.98,2.98,.74,2.13,1.61,4.49,2.26,7.18,.64,2.67,1.04,5.73,.6,8.81-.41,3.08-1.67,6-3.44,8.25-.48,.54-.94,1.08-1.41,1.59-.5,.49-1.04,.93-1.58,1.36-1.02,.89-2.3,1.5-3.49,2.11,.59-2.69,1.29-5.04,1.49-7.29,.22-2.23,.1-4.19-.32-6.03-.42-1.84-1.09-3.63-1.93-5.64-.83-2-1.82-4.19-2.69-6.7-.43-1.25-.83-2.58-1.15-4.07-.3-1.46-.47-2.93-.52-4.4-.1-2.94,.32-5.83,1.17-8.51,1.71-5.36,4.87-10.01,9.36-13.09Z"/>
  <path class="cls-10" d="M176.43,7.85c-.46,5.4-.94,10.05-.74,14.41,.09,2.17,.31,4.22,.7,6.18,.21,.98,.42,1.93,.7,2.86,.26,.9,.6,1.91,.98,2.98,.74,2.13,1.61,4.49,2.26,7.18,.64,2.67,1.04,5.73,.6,8.81-.41,3.08-1.67,6-3.44,8.25-.48,.54-.93,1.08-1.41,1.59-.5,.49-1.04,.93-1.58,1.36-1.02,.89-2.3,1.5-3.48,2.11,.59-2.69,1.29-5.04,1.49-7.29,.22-2.23,.1-4.19-.32-6.03-.42-1.84-1.09-3.63-1.93-5.64-.83-2-1.82-4.19-2.69-6.7-.43-1.25-.83-2.58-1.15-4.07-.3-1.46-.47-2.93-.52-4.4-.1-2.94,.32-5.83,1.17-8.51,1.71-5.36,4.87-10.01,9.36-13.09Z"/>
</svg>